<?xml version="1.0" ?>
<!DOCTYPE svg  PUBLIC '-//W3C//DTD SVG 1.1//EN'  'http://www.w3.org/Graphics/SVG/1.1/DTD/svg11.dtd'>
<!-- Uploaded to: SVG Repo, www.svgrepo.com, Generator: SVG Repo Mixer Tools -->
<svg fill="#000000" width="800px" height="800px" viewBox="0 0 32 32" style="fill-rule:evenodd;clip-rule:evenodd;stroke-linejoin:round;stroke-miterlimit:2;" version="1.1" xml:space="preserve" xmlns="http://www.w3.org/2000/svg" xmlns:serif="http://www.serif.com/" xmlns:xlink="http://www.w3.org/1999/xlink">
<g transform="matrix(1,0,0,1,-240,0)">
<g transform="matrix(0.659966,0.659966,-0.707107,0.707107,99.2547,-165.504)">
<path d="M265.071,9.908C265.071,9.331 264.805,8.782 264.34,8.402C262.917,7.24 259.755,4.658 257.911,3.152C257.103,2.493 255.897,2.493 255.089,3.152C253.245,4.658 250.083,7.24 248.66,8.402C248.195,8.782 247.929,9.331 247.929,9.908C247.929,12.936 247.929,22.745 247.929,27C247.929,27.53 248.154,28.039 248.556,28.414C248.958,28.789 249.503,29 250.071,29C253.365,29 259.635,29 262.929,29C263.497,29 264.042,28.789 264.444,28.414C264.846,28.039 265.071,27.53 265.071,27C265.071,22.745 265.071,12.936 265.071,9.908Z" style="fill:rgb(144,224,239);"/>
</g>
<path d="M267.894,17.147C268.506,16.536 268.824,15.69 268.766,14.826L268.236,6.872C268.136,5.372 266.942,4.178 265.442,4.078L257.487,3.547C256.624,3.49 255.778,3.808 255.166,4.419C253.025,6.561 246.089,13.497 243.08,16.506C242.518,17.068 242.201,17.831 242.201,18.627C242.201,19.423 242.518,20.186 243.08,20.748L251.565,29.234C252.128,29.796 252.891,30.112 253.687,30.112C254.482,30.112 255.246,29.796 255.808,29.234L267.894,17.147ZM266.48,15.733L254.394,27.819C254.206,28.007 253.952,28.112 253.687,28.112C253.422,28.112 253.167,28.007 252.98,27.819C252.98,27.819 244.494,19.334 244.494,19.334C244.307,19.146 244.201,18.892 244.201,18.627C244.201,18.362 244.307,18.107 244.494,17.92L256.581,5.834C256.785,5.63 257.066,5.524 257.354,5.543C257.354,5.543 265.309,6.073 265.309,6.073C265.809,6.107 266.207,6.505 266.24,7.005L266.771,14.959C266.79,15.247 266.684,15.529 266.48,15.733ZM262.879,9.435C263.66,10.215 263.66,11.482 262.879,12.263C262.099,13.043 260.831,13.043 260.051,12.263C259.27,11.482 259.27,10.215 260.051,9.435C260.831,8.654 262.099,8.654 262.879,9.435Z" style="fill:rgb(25,144,167);"/>
</g>
</svg>