<svg xmlns="http://www.w3.org/2000/svg" version="1.1" xmlns:xlink="http://www.w3.org/1999/xlink" xmlns:svgjs="http://svgjs.dev/svgjs" width="765" height="625" viewBox="0 0 300 300" style="background-color: rgb(255, 80, 0);" class="svg-animations "><svg viewBox="0 0 135 140" width="50" height="50" style="fill: rgb(0, 0, 0);" x="215.31500244140625" y="125"><svg width="135" height="135" viewBox="0 0 135 135" xmlns="http://www.w3.org/2000/svg">
	<path d="M67.5 0C30.2835 0 0 30.2835 0 67.5C0 104.717 30.2835 135 67.5 135C104.717 135 135 104.717 135 67.5C135 30.2835 104.717 0 67.5 0ZM130.992 67.5C130.992 72.2957 130.445 76.9711 129.43 81.4729C114.415 94.3905 82.3011 104.449 55.1702 79.389C54.008 78.3203 52.8325 77.3184 51.6569 76.3967C51.4566 72.2422 51.6837 67.8473 52.4451 63.1986C54.3553 51.4966 52.4184 41.7717 46.701 34.291C39.8748 25.3542 29.5354 22.0814 24.4058 20.9593C35.7204 10.4463 50.8688 4.00752 67.5 4.00752C102.512 4.00752 130.992 32.4876 130.992 67.5ZM20.9326 24.4058C22.0146 24.5394 35.6269 26.4096 43.5083 36.7089C48.5311 43.2812 50.2142 51.9775 48.491 62.544C47.8632 66.3645 47.5826 70.0247 47.5826 73.538C41.2107 69.5839 34.6517 67.7939 27.9591 68.2614C17.2056 68.9961 9.057 75.2746 5.08955 79.0149C4.38156 75.2746 4.00752 71.4274 4.00752 67.5C4.00752 50.8821 10.4329 35.7337 20.9326 24.4058ZM6.10479 83.677C8.32228 81.2992 16.7782 73.0304 28.253 72.2556C34.8521 71.8148 41.3977 73.912 47.7696 78.494C49.8535 104.984 68.729 121.735 85.2667 128.441C79.6294 130.084 73.6716 130.992 67.5134 130.992C38.0848 130.992 13.2783 110.875 6.10479 83.677ZM91.3314 126.33C75.8624 121.775 55.9984 106.934 52.2046 82.1141C52.2848 82.1809 52.3649 82.2477 52.4317 82.3145C65.4962 94.3905 79.6294 98.8522 92.7073 98.8522C106.306 98.8522 118.729 94.0164 127.613 87.8983C121.668 105.358 108.323 119.424 91.3314 126.33Z"/>
	<path d="M92.3467 71.3068C103.234 71.3068 112.09 62.4501 112.09 51.5631C112.09 40.676 103.234 31.8193 92.3467 31.8193C81.4596 31.8193 72.603 40.676 72.603 51.5631C72.603 62.4501 81.473 71.3068 92.3467 71.3068ZM92.3467 35.8269C101.03 35.8269 108.083 42.8801 108.083 51.5631C108.083 60.246 101.03 67.2993 92.3467 67.2993C83.6771 67.2993 76.6105 60.246 76.6105 51.5631C76.6105 42.8801 83.6771 35.8269 92.3467 35.8269Z"/>
	</svg></svg><svg style="fill: rgb(0, 0, 0);" x="44.68499755859375" y="126.55999946594238"><path d="M7.24 43L2.81 43L2.81 4.12L7.24 4.12L7.24 43ZM18.95 43L14.58 43L14.58 4.12L20.57 4.12L36.72 23.34L52.87 4.12L58.86 4.12L58.86 43L54.49 43L54.49 9.09L36.72 30.20L18.95 9.09L18.95 43ZM97.09 43L71.17 43Q68.47 43 66.58 41.11Q64.69 39.22 64.69 36.52L64.69 36.52L64.69 10.60Q64.69 7.90 66.58 6.01Q68.47 4.12 71.17 4.12L71.17 4.12L97.09 4.12Q99.79 4.12 101.68 6.01Q103.57 7.90 103.57 10.60L103.57 10.60L103.57 12.17L99.20 12.17L99.20 10.60Q99.20 9.74 98.58 9.12Q97.96 8.49 97.09 8.49L97.09 8.49L71.17 8.49Q70.31 8.49 69.69 9.12Q69.07 9.74 69.07 10.60L69.07 10.60L69.07 36.52Q69.07 37.38 69.69 38.01Q70.31 38.63 71.17 38.63L71.17 38.63L97.09 38.63Q97.96 38.63 98.58 38.01Q99.20 37.38 99.20 36.52L99.20 36.52L99.20 26.91L89.59 26.91L89.59 22.48L103.57 22.48L103.57 36.52Q103.57 39.22 101.68 41.11Q99.79 43 97.09 43L97.09 43ZM135.97 43L130.90 43L108.38 4.12L113.51 4.12L133.43 38.73L153.31 4.12L158.44 4.12L135.97 43Z"/></svg><text fill="#ffffff" font-family="Georgia" font-size="16px" x="125" y="173.44000053405762"><tspan dy="0" x="125"></tspan></text></svg>